<svg xmlns="http://www.w3.org/2000/svg" version="1.1" xmlns:xlink="http://www.w3.org/1999/xlink" width="512" height="512" x="0" y="0" viewBox="0 0 256 256" style="enable-background:new 0 0 512 512" xml:space="preserve" class=""><g><path fill="#808285" d="M228.944 189.433H27.056a7.35 7.35 0 0 1-7.351-7.351V38.584a7.35 7.35 0 0 1 7.351-7.351h201.888a7.35 7.35 0 0 1 7.351 7.351v143.497a7.352 7.352 0 0 1-7.351 7.352z" opacity="1" data-original="#808285"></path><path fill="#58595b" d="M231.002 31.525a7.36 7.36 0 0 1 .293 2.059v143.497a7.351 7.351 0 0 1-7.351 7.352H22.056a7.402 7.402 0 0 1-2.059-.292 7.353 7.353 0 0 0 7.059 5.292h201.888a7.351 7.351 0 0 0 7.351-7.352V38.584a7.356 7.356 0 0 0-5.293-7.059z" opacity="1" data-original="#58595b"></path><path fill="#808285" d="M104.522 189.433h46.956v33.492h-46.956z" opacity="1" data-original="#808285"></path><path fill="#58595b" d="M141.478 189.433v19.492a4 4 0 0 1-4 4h-32.956v10h46.956v-33.492z" opacity="1" data-original="#58595b"></path><path fill="#f1f2f2" d="M227.763 164.283H28.237a2.177 2.177 0 0 1-2.177-2.177V39.293c0-1.202.975-2.177 2.177-2.177h199.525c1.202 0 2.177.975 2.177 2.177v122.813a2.176 2.176 0 0 1-2.176 2.177z" opacity="1" data-original="#f1f2f2"></path><path fill="#e6e7e8" d="M227.763 37.116h-7.823v114.99a2.177 2.177 0 0 1-2.177 2.177H26.06v7.823c0 1.202.975 2.177 2.177 2.177h199.525a2.177 2.177 0 0 0 2.177-2.177V39.293a2.175 2.175 0 0 0-2.176-2.177z" opacity="1" data-original="#e6e7e8"></path><path fill="#d1d3d4" d="M227.763 37.116h-2.823v119.99a2.177 2.177 0 0 1-2.177 2.177H26.06v2.823c0 1.203.975 2.177 2.177 2.177h199.525a2.177 2.177 0 0 0 2.177-2.177V39.293a2.175 2.175 0 0 0-2.176-2.177z" opacity="1" data-original="#d1d3d4"></path><path fill="#478cf7" d="M83.221 37.116H28.237a2.177 2.177 0 0 0-2.177 2.177v122.813c0 1.203.975 2.177 2.177 2.177h54.984z" opacity="1" data-original="#478cf7"></path><path fill="#377de2" d="M26.06 152.106v10c0 1.203.975 2.177 2.177 2.177h54.984v-10H28.237a2.177 2.177 0 0 1-2.177-2.177z" opacity="1" data-original="#377de2"></path><path fill="#5e9cf7" d="M32.06 145.25a2 2 0 1 1 0-4 2 2 0 0 1 0 4zm0-8c-1.1 0-2-.891-2-1.99V43.11a2 2 0 0 1 2-1.989h40.11c1.1 0 2 .89 2 1.989 0 1.11-.9 2.011-2 2.011l-38.11-.011v90.15c0 1.099-.9 1.99-2 1.99z" opacity="1" data-original="#5e9cf7"></path><path fill="#808285" d="M163.959 236.571H92.041a5.756 5.756 0 0 1-5.756-5.756v-2.135a5.756 5.756 0 0 1 5.756-5.756h71.917a5.756 5.756 0 0 1 5.756 5.756v2.135a5.756 5.756 0 0 1-5.755 5.756z" opacity="1" data-original="#808285"></path><path fill="#58595b" d="M164.67 222.969c.029.233.044.471.044.712v2.135a5.755 5.755 0 0 1-5.756 5.755H87.041a5.97 5.97 0 0 1-.712-.043 5.756 5.756 0 0 0 5.712 5.043h71.917a5.756 5.756 0 0 0 5.756-5.755v-2.135a5.756 5.756 0 0 0-5.044-5.712z" opacity="1" data-original="#58595b"></path><path fill="#ffa91a" d="M67.452 63.193H45.2a3 3 0 1 1 0-6h22.252a3 3 0 1 1 0 6zM67.452 80.995H45.2a3 3 0 1 1 0-6h22.252a3 3 0 1 1 0 6zM67.452 98.797H45.2a3 3 0 1 1 0-6h22.252a3 3 0 1 1 0 6zM67.452 116.599H45.2a3 3 0 1 1 0-6h22.252a3 3 0 1 1 0 6zM189.959 77.992v59.928h14.174V77.992a2 2 0 0 0-2-2h-10.174a2 2 0 0 0-2 2z" opacity="1" data-original="#ffa91a"></path><path fill="#478cf7" d="M123.507 105.889h-10.174a2 2 0 0 0-2 2v30.031h14.174v-30.031a2 2 0 0 0-2-2z" opacity="1" data-original="#478cf7"></path><path fill="#ffa91a" d="M149.716 98.421h-10.174a2 2 0 0 0-2 2v37.499h14.174v-37.499a2 2 0 0 0-2-2z" opacity="1" data-original="#ffa91a"></path><path fill="#478cf7" d="M175.924 87.373H165.75a2 2 0 0 0-2 2v48.547h14.174V89.373a2 2 0 0 0-2-2z" opacity="1" data-original="#478cf7"></path><circle cx="118.42" cy="61.603" r="4.165" fill="#ffa91a" opacity="1" data-original="#ffa91a"></circle><circle cx="118.42" cy="76.889" r="4.165" fill="#478cf7" opacity="1" data-original="#478cf7"></circle><path fill="#939598" d="M164.735 64.603h-34.589a3 3 0 1 1 0-6h34.589a3 3 0 1 1 0 6zM152.398 79.889h-22.252a3 3 0 1 1 0-6h22.252a3 3 0 1 1 0 6zM212.912 143.218H102.546v-5.298h110.366a2.649 2.649 0 0 1 0 5.298zM102.546 60.086v83.131h-1.298a4 4 0 0 1-4-4V60.086a2.649 2.649 0 0 1 5.298 0z" opacity="1" data-original="#939598"></path></g></svg>
