<svg xmlns="http://www.w3.org/2000/svg" version="1.1" xmlns:xlink="http://www.w3.org/1999/xlink" width="512" height="512" x="0" y="0" viewBox="0 0 60 60" style="enable-background:new 0 0 512 512" xml:space="preserve" class=""><g><path fill="#71c285" d="m48.688 24.21 4.63 2.92a4 4 0 0 1 1.36 4.83l-1.14 2.64a4.028 4.028 0 0 0-.11 2.84l1.23 3.7a3.9 3.9 0 0 1 .17 1.76l-.55 4.38a3.98 3.98 0 0 1-2.99 3.38l-3.42.86a3.989 3.989 0 0 0-2.71 2.3l-1.179 2.76a3.988 3.988 0 0 1-3.67 2.42h-10.2a4.045 4.045 0 0 1-2.06-.57l-2.79-1.67a4.009 4.009 0 0 0-2.71-.52l-3.03.51a4.054 4.054 0 0 1-2.819-.58l-9.81-6.32a3.992 3.992 0 0 1-1.5-4.98l1.77-3.97a3.994 3.994 0 0 0-.23-3.68l-1.36-2.27A4.018 4.018 0 0 1 5 32.89V31.6a4.011 4.011 0 0 1 2.38-3.66L11.74 26z" opacity="1" data-original="#71c285"></path><path fill="#e64c3c" d="M48.727 23.986c-2.182 13.232-14.994 21.13-18.051 22.842a1.33 1.33 0 0 1-1.3 0C26.035 44.963 11 35.683 11 20.109A19.066 19.066 0 0 1 30.808 1.016c11.607.47 19.817 11.457 17.919 22.97z" opacity="1" data-original="#e64c3c"></path><circle cx="30" cy="20" r="15" fill="#ecf0f1" opacity="1" data-original="#ecf0f1"></circle><path fill="#547580" d="M40.94 18.91a.722.722 0 0 0-.6-.63l-1.56-.25a9.133 9.133 0 0 0-1.18-2.84l.92-1.29a.705.705 0 0 0-.01-.86c-.23-.28-.47-.55-.73-.82s-.54-.5-.82-.73a.705.705 0 0 0-.86-.01l-1.29.92a9.133 9.133 0 0 0-2.84-1.18l-.25-1.56a.722.722 0 0 0-.63-.6 9.931 9.931 0 0 0-2.18 0 .722.722 0 0 0-.63.6l-.25 1.56a9.133 9.133 0 0 0-2.84 1.18l-1.29-.92a.705.705 0 0 0-.86.01c-.28.23-.55.47-.82.73s-.5.54-.73.82a.705.705 0 0 0-.01.86l.92 1.29a9.133 9.133 0 0 0-1.18 2.84l-1.56.25a.722.722 0 0 0-.6.63 9.931 9.931 0 0 0 0 2.18.722.722 0 0 0 .6.63l1.56.25a9.133 9.133 0 0 0 1.18 2.84l-.92 1.29a.705.705 0 0 0 .01.86c.23.28.47.55.73.82s.54.5.82.73a.705.705 0 0 0 .86.01l1.29-.92a9.133 9.133 0 0 0 2.84 1.18l.25 1.56a.722.722 0 0 0 .63.6 9.931 9.931 0 0 0 2.18 0 .722.722 0 0 0 .63-.6l.25-1.56a9.133 9.133 0 0 0 2.84-1.18l1.29.92a.705.705 0 0 0 .86-.01c.28-.23.55-.47.82-.73s.5-.54.73-.82a.705.705 0 0 0 .01-.86l-.92-1.29a9.133 9.133 0 0 0 1.18-2.84l1.56-.25a.722.722 0 0 0 .6-.63 9.931 9.931 0 0 0 0-2.18zM30 25a5 5 0 1 1 5-5 5 5 0 0 1-5 5z" opacity="1" data-original="#547580"></path></g></svg>
