<svg xmlns="http://www.w3.org/2000/svg" version="1.1" xmlns:xlink="http://www.w3.org/1999/xlink" width="512" height="512" x="0" y="0" viewBox="0 0 64 64" style="enable-background:new 0 0 512 512" xml:space="preserve" class=""><g><g data-name="Layer 14"><path fill="#565656" d="m39 58-1-4H26l-1 4zM8 14a4 4 0 0 0-4 4v32a4 4 0 0 0 4 4h48a4 4 0 0 0 4-4V18a4 4 0 0 0-4-4z" opacity="1" data-original="#565656"></path><path fill="#636363" d="M56 14H8a4.061 4.061 0 0 0-.471.047A3.959 3.959 0 0 0 7 16v32a4 4 0 0 0 4 4h48a4.061 4.061 0 0 0 .471-.047A3.959 3.959 0 0 0 60 50V18a4 4 0 0 0-4-4z" opacity="1" data-original="#636363"></path><path fill="#66c3e9" d="M8 46V18h48v28" opacity="1" data-original="#66c3e9"></path><path fill="#8adef9" d="M11 18h45v28H11z" opacity="1" data-original="#8adef9"></path><path fill="#3693cf" d="M4 50a4 4 0 0 0 4 4h48a4 4 0 0 0 4-4v-4H4z" opacity="1" data-original="#3693cf"></path><path fill="#43b6e5" d="M7 48a4 4 0 0 0 4 4h48a4.061 4.061 0 0 0 .471-.047A3.959 3.959 0 0 0 60 50v-4H7z" opacity="1" data-original="#43b6e5"></path><path fill="#3693cf" d="M39 58H25a3 3 0 0 0-3 3v1h20v-1a3 3 0 0 0-3-3z" opacity="1" data-original="#3693cf"></path><path fill="#ffffff" d="M31 49h2v2h-2z" opacity="1" data-original="#ffffff"></path><path fill="#43b6e5" d="M39 58H27a3 3 0 0 0-3 3v1h18v-1a3 3 0 0 0-3-3z" opacity="1" data-original="#43b6e5"></path><path fill="#cccccc" d="M8 46V6a4 4 0 0 1 4-4h40a4 4 0 0 1 4 4v40" opacity="1" data-original="#cccccc"></path><path fill="#f2f2f2" d="M56 6a4 4 0 0 0-4-4H12a3.974 3.974 0 0 0-.892.108A3.974 3.974 0 0 0 11 3v15.544A24.456 24.456 0 0 0 35.456 43H56z" opacity="1" data-original="#f2f2f2"></path><path fill="#3693cf" d="M56 6a4 4 0 0 0-4-4H12a4 4 0 0 0-4 4v2h48z" opacity="1" data-original="#3693cf"></path><path fill="#43b6e5" d="M56 8V6a4 4 0 0 0-4-4H12a3.974 3.974 0 0 0-.892.108A3.974 3.974 0 0 0 11 3v5z" opacity="1" data-original="#43b6e5"></path><path fill="#1e3ca2" d="M32 17a5 5 0 0 1 4.4 2.617l-.007-.007L34 22h7v-7l-1.715 1.715A8.987 8.987 0 0 0 32 13" opacity="1" data-original="#1e3ca2"></path><path fill="#4588e8" d="M27 22a5 5 0 0 1 3.3-4.7L32 19v-7h-7l2.314 2.314A9 9 0 0 0 23 22" opacity="1" data-original="#4588e8"></path><path fill="#adadad" d="m38.4 28.4-2.9-2.9.036.036a5 5 0 0 1-7.928-1.144L30 22h-7v7l1.715-1.715a9 9 0 0 0 13.649 1.079z" opacity="1" data-original="#adadad"></path><path fill="#3693cf" d="M13 36h6v6h-6z" opacity="1" data-original="#3693cf"></path><rect width="28" height="6" x="23" y="36" fill="#3693cf" rx="3" opacity="1" data-original="#3693cf"></rect><path fill="#ff4d55" d="m14.287 39.29 6.999-6.998 1.414 1.414-6.999 6.999z" opacity="1" data-original="#ff4d55"></path><path fill="#43b6e5" d="M48 42a3 3 0 0 0 0-6H26a2.994 2.994 0 0 0-2.932 3.628A24.284 24.284 0 0 0 28.534 42z" opacity="1" data-original="#43b6e5"></path></g></g></svg>
