<svg xmlns="http://www.w3.org/2000/svg" version="1.1" xmlns:xlink="http://www.w3.org/1999/xlink" width="512" height="512" x="0" y="0" viewBox="0 0 60 60" style="enable-background:new 0 0 512 512" xml:space="preserve" class=""><g><path fill="#d5dee2" d="M30.3 35.4A14 14 0 0 1 41 49v4a2.006 2.006 0 0 1-2 2H3a2.006 2.006 0 0 1-2-2v-4a14 14 0 0 1 10.7-13.6z" opacity="1" data-original="#d5dee2"></path><path fill="#c44949" d="m25 55-2-8-2-1-2 1-2 8z" opacity="1" data-original="#c44949"></path><path fill="#242c4c" d="M35 19v-5A13 13 0 0 0 22 1h-2A13 13 0 0 0 7 14v5z" opacity="1" data-original="#242c4c"></path><path fill="#e8edef" d="m30.3 35.4-3.7 7.41a1.25 1.25 0 0 1-1.74.51L21 41l-3.86 2.32a1.25 1.25 0 0 1-1.74-.51l-3.7-7.41A13.806 13.806 0 0 1 15 35h12a13.806 13.806 0 0 1 3.3.4z" opacity="1" data-original="#e8edef"></path><path fill="#fcab8b" d="M25 32.41V35l-4 6-4-6v-2.59z" opacity="1" data-original="#fcab8b"></path><path fill="#dd5252" d="M17.36 43.18 19 47h4l1.64-3.82L21 41z" opacity="1" data-original="#dd5252"></path><path fill="#ffba9c" d="M21 9c2.394 2.394 5.862 3.355 8.261 3.741A3.288 3.288 0 0 1 32 16a3 3 0 0 1 0 6s0 11-11 11-11-11-11-11a3 3 0 0 1 0-6 3.288 3.288 0 0 1 2.739-3.259C15.138 12.355 18.606 11.394 21 9z" opacity="1" data-original="#ffba9c"></path><rect width="26" height="22" x="33" y="37" fill="#242c4c" rx="3" opacity="1" data-original="#242c4c"></rect><g fill="#fff"><path d="M44 41a1 1 0 0 0-1 1v5h-4v-5a1 1 0 0 0-2 0v12a1 1 0 0 0 2 0v-5h4v5a1 1 0 0 0 2 0V42a1 1 0 0 0-1-1zM53.618 48A3.983 3.983 0 0 0 51 41h-3a1 1 0 0 0-1 1v12a1 1 0 0 0 2 0v-5h2a2 2 0 0 1 2 2v3a1 1 0 0 0 2 0v-3a3.974 3.974 0 0 0-1.382-3zM49 47v-4h2a2 2 0 0 1 0 4z" fill="#ffffff" opacity="1" data-original="#ffffff"></path></g></g></svg>
