<svg xmlns="http://www.w3.org/2000/svg" version="1.1" xmlns:xlink="http://www.w3.org/1999/xlink" width="512" height="512" x="0" y="0" viewBox="0 0 512 512" style="enable-background:new 0 0 512 512" xml:space="preserve" class=""><g><g fill-rule="evenodd"><path fill="#5d689e" d="M162.652 458.462 106.265 369.4a15.913 15.913 0 0 0-21.893-4.919l-21.055 13.33a15.914 15.914 0 0 0-4.917 21.895l56.387 89.062a15.913 15.913 0 0 0 21.893 4.918l21.054-13.33a15.914 15.914 0 0 0 4.918-21.894z" opacity="1" data-original="#5d689e"></path><path fill="#7986bf" d="M80.765 394.29a6.467 6.467 0 0 1 10.918-6.934L99.9 400.34a6.467 6.467 0 0 1-10.918 6.933z" opacity="1" data-original="#7986bf"></path><path fill="#f6dccd" d="m158.11 344.235-47.774 31.595 48.9 77.234 1.339-.945c3.208-2.263 2.353-1.5 6.76-.48l78.365 18.124q23.388 7.116 41.9-5.624l116.63-76.989c39.9-20.317 5.329-62.232-28.684-39.155l-78.726 47.153q-8.979 7.611-29.395 7.1c.1-.058.8-.508.9-.566 66.913-37.949-75.71-78.259-110.215-57.447z" opacity="1" data-original="#f6dccd"></path><path fill="#f1cbbc" d="M267.423 402.246h.006c.135-.079.788-.5.887-.559a65.976 65.976 0 0 0 6.663-4.3l-55.769-12.513a5.789 5.789 0 0 0-6.9 4.367 5.7 5.7 0 0 0 .024 2.619 6.306 6.306 0 0 1 2.138.23c23.789 6.763 40.79 9.617 52.951 10.156zM158.11 344.235l-47.774 31.595 18.934 29.906 98.246-62.069c-27.097-6.4-56.186-7.406-69.406.568z" opacity="1" data-original="#f1cbbc"></path><path fill="#d19458" d="M450.981 199.946 390.717 153.4c-4.872-3.763-13.466-3.763-18.337 0l-60.265 46.549a13.073 13.073 0 0 0 15.985 20.689l53.45-41.286L435 220.638a13.073 13.073 0 0 0 15.983-20.692z" opacity="1" data-original="#d19458"></path><path fill="#e6b17c" d="m416.063 172.975 24.566 18.976v-32.935a6.16 6.16 0 0 0-6.142-6.141h-12.282a6.159 6.159 0 0 0-6.142 6.141z" opacity="1" data-original="#e6b17c"></path><path fill="#f3f3ff" d="M406.947 228.77H356.14v69.334l50.816-.001z" opacity="1" data-original="#f3f3ff"></path><path fill="#e6b17c" d="M356.14 228.77h50.807l.009 69.333h31.261V222.46a12.966 12.966 0 0 1-3.217-1.822l-53.45-41.286-53.45 41.286a12.966 12.966 0 0 1-3.219 1.822v75.645h31.259z" opacity="1" data-original="#e6b17c"></path><g fill="#eceff1"><path d="M292.652 31.147a3.347 3.347 0 1 1-6.693 0V19.214a3.347 3.347 0 1 1 6.693 0zM335.912 45.81a3.346 3.346 0 0 1-4.732-4.732l6.4-6.4a3.346 3.346 0 1 1 4.732 4.732zM238.988 42.315a3.346 3.346 0 1 1-4.732 4.732l-6.4-6.4a3.346 3.346 0 1 1 4.733-4.732zM345.749 83.388l-36.244.056a4.183 4.183 0 0 1-.132 2.014l-23.488 75.409a4.17 4.17 0 0 0 3.418-1.7l55.561-73.143a4.281 4.281 0 0 0 .885-2.636z" fill="#eceff1" opacity="1" data-original="#eceff1" class=""></path></g><path fill="#4eb1fc" d="m309.505 83.444 36.244-.056a4.277 4.277 0 0 0-.964-2.651l-18.209-22.544A4.164 4.164 0 0 0 323.2 56.6l-37.584.366L308.4 81.292a4.271 4.271 0 0 1 1.105 2.152z" opacity="1" data-original="#4eb1fc"></path><path fill="#eceff1" d="m308.4 81.292-22.788-24.328-23.257 25.072a4.4 4.4 0 0 0-.917 1.482l48.067-.074a4.271 4.271 0 0 0-1.105-2.152z" opacity="1" data-original="#eceff1" class=""></path><path fill="#4eb1fc" d="m309.505 83.444-48.067.074a4.131 4.131 0 0 0-.029 2.73l24.476 74.619 23.488-75.409a4.183 4.183 0 0 0 .132-2.014z" opacity="1" data-original="#4eb1fc"></path><path fill="#eceff1" d="m285.885 160.867-24.476-74.619a4.131 4.131 0 0 1 .029-2.73l-35.179.054a4.278 4.278 0 0 0 .884 2.69l55.325 72.908a4.168 4.168 0 0 0 3.417 1.697z" opacity="1" data-original="#eceff1" class=""></path><path fill="#4eb1fc" d="m226.259 83.572 35.179-.054a4.4 4.4 0 0 1 .917-1.482l23.257-25.072-37.584.366a4.165 4.165 0 0 0-3.319 1.623L227.2 81a4.285 4.285 0 0 0-.941 2.572z" opacity="1" data-original="#4eb1fc"></path><path fill="#eceff1" d="M88.469 260.828A15.167 15.167 0 1 0 73.3 245.661a15.167 15.167 0 0 0 15.169 15.167zM227.135 245.661a15.167 15.167 0 1 0 15.165-15.167 15.167 15.167 0 0 0-15.165 15.167z" opacity="1" data-original="#eceff1" class=""></path><path fill="#697c86" d="M109.85 292.272v-11.316H67.087v11.316A11.349 11.349 0 0 0 78.4 303.588h20.134a11.35 11.35 0 0 0 11.316-11.316zM220.92 280.956v11.316a11.35 11.35 0 0 0 11.316 11.316h20.131a11.35 11.35 0 0 0 11.316-11.316v-11.316zM111.775 280.956H220.92v-.402l-16.843-27.526h-75.256z" opacity="1" data-original="#697c86"></path><path fill="#fd4755" d="m111.775 280.956 17.046-27.928h75.256l16.843 27.526v.4h44.132a4.341 4.341 0 0 0 4.333-4.333v-42.545a23.78 23.78 0 0 0-23.71-23.71H85.1a23.78 23.78 0 0 0-23.71 23.71v42.547a4.341 4.341 0 0 0 4.333 4.333h46.057zM242.3 260.828a15.167 15.167 0 1 1 15.167-15.167 15.167 15.167 0 0 1-15.167 15.167zm-138.665-15.167a15.167 15.167 0 1 1-15.166-15.167 15.167 15.167 0 0 1 15.166 15.167z" opacity="1" data-original="#fd4755"></path><path fill="#697c86" d="M116.416 241.761a3.467 3.467 0 0 1 0-6.933h98.8a3.467 3.467 0 0 1 0 6.933zM130.084 227.759a3.467 3.467 0 1 1 0-6.933h71.465a3.467 3.467 0 1 1 0 6.933z" opacity="1" data-original="#697c86"></path><path fill="#d5e7ff" d="M85.1 210.366h160.58a23.5 23.5 0 0 1 8.03 1.408l-30.846-47.859c-4.343-6.614-11.8-10.4-20.486-10.4-.233 0-77.476-.466-77.567-.449l-4.429.866a22.91 22.91 0 0 0-16.676 11.768l-23.757 45.232a23.611 23.611 0 0 1 5.151-.566z" opacity="1" data-original="#d5e7ff"></path><path fill="#697c86" d="M191.236 210.275v.091H184.3v-.091a20.909 20.909 0 0 1 41.817 0v.091h-6.931v-.091a13.975 13.975 0 0 0-27.95 0z" opacity="1" data-original="#697c86"></path></g></g></svg>
