<svg xmlns="http://www.w3.org/2000/svg" version="1.1" xmlns:xlink="http://www.w3.org/1999/xlink" width="512" height="512" x="0" y="0" viewBox="0 0 512 512" style="enable-background:new 0 0 512 512" xml:space="preserve" class=""><g><path fill="#f7bb38" d="M86.656 353.87 23.81 426.81a12.476 12.476 0 0 1-5.195-10.165c0-113.644-.659-109.613 1.187-113.676z" opacity="1" data-original="#f7bb38"></path><path fill="#f6c752" d="M213.763 426.81a12.2 12.2 0 0 1-7.42 2.449H31.229a12.2 12.2 0 0 1-7.42-2.449l62.848-72.94 32.129 24.487 32.129-24.487z" opacity="1" data-original="#f6c752"></path><path fill="#f7bb38" d="M218.957 416.645a12.476 12.476 0 0 1-5.194 10.165l-62.848-72.94 66.855-50.901c1.846 4.062 1.187-.01 1.187 113.676z" opacity="1" data-original="#f7bb38"></path><path fill="#f6d372" d="m217.77 302.969-98.984 75.388-98.984-75.388a12.602 12.602 0 0 1 11.427-7.271h175.114a12.602 12.602 0 0 1 11.427 7.271z" opacity="1" data-original="#f6d372"></path><path fill="#f7bb38" d="M86.656 353.87 23.81 426.81a12.476 12.476 0 0 1-5.195-10.165c0-113.644-.659-109.613 1.187-113.676z" opacity="1" data-original="#f7bb38"></path><path fill="#f3b722" d="M213.763 426.81a12.2 12.2 0 0 1-7.42 2.449h-7.42a12.55 12.55 0 0 0 11.13-6.752z" opacity="1" data-original="#f3b722"></path><path fill="#f2a90a" d="M218.957 416.645a12.476 12.476 0 0 1-5.194 10.165l-3.71-4.303c2.288-4.225 1.484-.311 1.484-114.79l6.233-4.748c1.846 4.062 1.187-.01 1.187 113.676z" opacity="1" data-original="#f2a90a"></path><path fill="#f3c442" d="m217.77 302.969-6.233 4.749a12.644 12.644 0 0 0-12.614-12.02h7.42a12.603 12.603 0 0 1 11.427 7.27z" opacity="1" data-original="#f3c442"></path><rect width="237.443" height="89.041" x="256.057" y="18.557" fill="#3e436d" rx="14.84" opacity="1" data-original="#3e436d" class=""></rect><g fill="#2c2f4c"><path d="M270.897 107.598h207.762v29.68H270.897zM270.897 226.32h207.762V256H270.897zM270.897 345.041h207.762v29.68H270.897zM270.897 463.762h207.762v29.68H270.897z" fill="#2c2f4c" opacity="1" data-original="#2c2f4c"></path></g><path fill="#191b2c" d="M471.24 107.598h7.42v29.68h-7.42zM471.24 226.32h7.42V256h-7.42zM471.24 345.041h7.42v29.68h-7.42zM471.24 463.762h7.42v29.68h-7.42z" opacity="1" data-original="#191b2c"></path><path fill="#47456a" d="M218.957 352.461h51.941v14.84h-51.941z" opacity="1" data-original="#47456a"></path><path fill="#f7bb38" d="M86.656 113.83 23.81 186.77a12.476 12.476 0 0 1-5.195-10.165c0-113.644-.659-109.612 1.187-113.675z" opacity="1" data-original="#f7bb38"></path><path fill="#f6c752" d="M213.763 186.77a12.2 12.2 0 0 1-7.42 2.45H31.229a12.2 12.2 0 0 1-7.42-2.45l62.848-72.94 32.129 24.487 32.129-24.486z" opacity="1" data-original="#f6c752"></path><path fill="#f7bb38" d="M218.957 176.605a12.476 12.476 0 0 1-5.194 10.165l-62.848-72.94 66.855-50.9c1.846 4.062 1.187-.011 1.187 113.675z" opacity="1" data-original="#f7bb38"></path><path fill="#f6d372" d="m217.77 62.93-98.984 75.388-98.984-75.389a12.602 12.602 0 0 1 11.427-7.271h175.114a12.602 12.602 0 0 1 11.427 7.271z" opacity="1" data-original="#f6d372"></path><path fill="#f3b722" d="M213.763 186.77a12.2 12.2 0 0 1-7.42 2.45h-7.42a12.55 12.55 0 0 0 11.13-6.753z" opacity="1" data-original="#f3b722"></path><path fill="#f2a90a" d="M218.957 176.605a12.476 12.476 0 0 1-5.194 10.165l-3.71-4.303c2.288-4.225 1.484-.31 1.484-114.789l6.233-4.749c1.846 4.062 1.187-.01 1.187 113.676z" opacity="1" data-original="#f2a90a"></path><path fill="#f3c442" d="m217.77 62.93-6.233 4.748a12.644 12.644 0 0 0-12.614-12.02h7.42a12.602 12.602 0 0 1 11.427 7.271z" opacity="1" data-original="#f3c442"></path><path fill="#47456a" d="M218.957 115.018h51.941v14.84h-51.941z" opacity="1" data-original="#47456a"></path><path fill="#32314b" d="M218.957 115.018h7.42v14.84h-7.42zM218.957 352.461h7.42v14.84h-7.42z" opacity="1" data-original="#32314b"></path><rect width="237.443" height="89.041" x="256.057" y="137.279" fill="#3e436d" rx="14.84" opacity="1" data-original="#3e436d" class=""></rect><rect width="237.443" height="89.041" x="256.057" y="256" fill="#3e436d" rx="14.84" opacity="1" data-original="#3e436d" class=""></rect><rect width="237.443" height="89.041" x="256.057" y="374.721" fill="#3e436d" rx="14.84" opacity="1" data-original="#3e436d" class=""></rect><path fill="#2c2f4c" d="M493.5 33.397v59.361a14.884 14.884 0 0 1-14.84 14.84h-7.42a14.884 14.884 0 0 0 14.84-14.84v-59.36a14.884 14.884 0 0 0-14.84-14.84h7.42a14.884 14.884 0 0 1 14.84 14.84zM493.5 152.119v59.361a14.884 14.884 0 0 1-14.84 14.84h-7.42a14.884 14.884 0 0 0 14.84-14.84v-59.361a14.884 14.884 0 0 0-14.84-14.84h7.42a14.884 14.884 0 0 1 14.84 14.84zM493.5 270.84v59.36a14.884 14.884 0 0 1-14.84 14.84h-7.42a14.884 14.884 0 0 0 14.84-14.84v-59.36A14.884 14.884 0 0 0 471.24 256h7.42a14.884 14.884 0 0 1 14.84 14.84zM493.5 389.562v59.36a14.884 14.884 0 0 1-14.84 14.84h-7.42a14.884 14.884 0 0 0 14.84-14.84v-59.36a14.884 14.884 0 0 0-14.84-14.84h7.42a14.884 14.884 0 0 1 14.84 14.84z" opacity="1" data-original="#2c2f4c"></path><path fill="#f22f1b" d="M278.318 40.818h14.84v14.84h-14.84z" opacity="1" data-original="#f22f1b"></path><path fill="#f6d372" d="M307.998 40.818h14.84v14.84h-14.84z" opacity="1" data-original="#f6d372"></path><path fill="#00b564" d="M337.678 40.818h14.84v14.84h-14.84z" opacity="1" data-original="#00b564"></path><path fill="#f4f4f4" d="M278.318 70.498h74.201v14.84h-74.201zM367.359 40.818H471.24v44.521H367.359z" opacity="1" data-original="#f4f4f4"></path><path fill="#f22f1b" d="M278.318 159.539h14.84v14.84h-14.84z" opacity="1" data-original="#f22f1b"></path><path fill="#f6d372" d="M307.998 159.539h14.84v14.84h-14.84z" opacity="1" data-original="#f6d372"></path><path fill="#00b564" d="M337.678 159.539h14.84v14.84h-14.84z" opacity="1" data-original="#00b564"></path><path fill="#f4f4f4" d="M278.318 189.219h74.201v14.84h-74.201zM367.359 159.539H471.24v44.521H367.359z" opacity="1" data-original="#f4f4f4"></path><path fill="#f22f1b" d="M278.318 278.26h14.84v14.84h-14.84z" opacity="1" data-original="#f22f1b"></path><path fill="#f6d372" d="M307.998 278.26h14.84v14.84h-14.84z" opacity="1" data-original="#f6d372"></path><path fill="#00b564" d="M337.678 278.26h14.84v14.84h-14.84z" opacity="1" data-original="#00b564"></path><path fill="#f4f4f4" d="M278.318 307.941h74.201v14.84h-74.201zM367.359 278.26H471.24v44.521H367.359z" opacity="1" data-original="#f4f4f4"></path><path fill="#f22f1b" d="M278.318 396.982h14.84v14.84h-14.84z" opacity="1" data-original="#f22f1b"></path><path fill="#f6d372" d="M307.998 396.982h14.84v14.84h-14.84z" opacity="1" data-original="#f6d372"></path><path fill="#00b564" d="M337.678 396.982h14.84v14.84h-14.84z" opacity="1" data-original="#00b564"></path><path fill="#f4f4f4" d="M278.318 426.662h74.201v14.84h-74.201z" opacity="1" data-original="#f4f4f4"></path><path fill="#dbdbdb" d="M278.318 70.498h7.42v14.84h-7.42zM278.318 189.219h7.42v14.84h-7.42zM278.318 307.941h7.42v14.84h-7.42zM278.318 426.662h7.42v14.84h-7.42z" opacity="1" data-original="#dbdbdb"></path><path fill="#f4f4f4" d="M367.359 396.982H471.24v44.521H367.359z" opacity="1" data-original="#f4f4f4"></path><path fill="#dbdbdb" d="M367.359 40.818h7.42v44.521h-7.42zM367.359 159.539h7.42v44.521h-7.42zM367.359 278.26h7.42v44.521h-7.42zM367.359 396.982h7.42v44.521h-7.42z" opacity="1" data-original="#dbdbdb"></path><path fill="#47456a" d="M111.366 189.219h14.84v106.479h-14.84z" opacity="1" data-original="#47456a"></path><path fill="#32314b" d="M111.366 288.277h14.84v7.42h-14.84z" opacity="1" data-original="#32314b"></path></g></svg>
