<svg xmlns="http://www.w3.org/2000/svg" version="1.1" xmlns:xlink="http://www.w3.org/1999/xlink" width="512" height="512" x="0" y="0" viewBox="0 0 512 512" style="enable-background:new 0 0 512 512" xml:space="preserve" class=""><g><g fill-rule="evenodd" clip-rule="evenodd"><path fill="#415c6c" d="M431.301 319.237c-1.844-2.949-.984-6.766 1.844-8.736 2.954-1.846 6.769-.982 8.612 1.847l5.663 8.737c1.598-5.909 2.951-12.058 3.934-18.333 1.725-10.335 2.585-21.039 2.585-32.109 0-38.021-10.701-73.449-29.28-103.597-19.19-31.25-46.752-56.592-79.728-73.201-2.948-1.601-4.306-5.291-2.704-8.368 1.598-3.074 5.29-4.308 8.367-2.828 34.938 17.595 64.223 44.656 84.646 77.881 19.809 31.986 31.125 69.758 31.125 110.113 0 11.562-.863 23.006-2.708 34.076-1.105 6.769-2.462 13.411-4.307 19.93l9.106-5.167c2.953-1.719 6.769-.613 8.488 2.341 1.721 3.071.616 6.889-2.339 8.49l-21.159 12.176c-2.832 1.602-6.518.738-8.365-2.088l-.739-1.105v-.123zm-74.924 122.049c2.949-1.726 6.763-.738 8.613 2.211 1.72 2.956.736 6.771-2.22 8.493-15.99 9.471-33.217 16.734-51.424 21.775-17.596 4.798-36.173 7.257-55.366 7.257-18.823 0-37.154-2.459-54.503-7.133-13.411-3.569-26.327-8.492-38.631-14.52l3.201 9.844c1.103 3.324-.62 6.766-3.942 7.876-3.319 1.105-6.765-.741-7.872-3.938l-7.627-23.254c-.984-3.077.495-6.524 3.69-7.75l23.5-9.229c3.198-1.229 6.764.367 8.12 3.569a6.18 6.18 0 0 1-3.569 7.994l-9.719 3.813a192.117 192.117 0 0 0 36.049 13.533c16.361 4.432 33.585 6.771 51.303 6.771 18.086 0 35.559-2.464 52.168-6.893 17.1-4.672 33.345-11.559 48.229-20.419zM76.232 353.563c1.476 3.196.124 6.89-2.954 8.362-3.2 1.358-6.887 0-8.363-3.072-6.278-13.656-11.198-28.048-14.393-42.941-3.206-14.639-4.926-29.77-4.926-45.27 0-35.805 8.981-69.518 24.855-99.045 14.271-26.697 34.078-49.828 57.823-68.036l-10.336-1.474c-3.445-.492-5.779-3.692-5.289-7.017.493-3.441 3.57-5.78 7.011-5.413l23.745 3.447c3.445.245 6.032 3.322 5.785 6.642l-2.089 25.347c-.374 3.322-3.322 5.903-6.771 5.659-3.444-.247-6.029-3.321-5.658-6.765l.861-10.337c-22.27 17.102-40.847 38.88-54.135 63.729-14.887 27.804-23.253 59.548-23.253 93.262 0 14.639 1.598 28.911 4.553 42.566 3.074 14.151 7.626 27.687 13.534 40.356zM282.681 146.502c15.376 3.195 29.525 9.23 42.321 17.468l16.607-7.378c3.076-1.354 6.892-.494 9.595 2.334l16.615 16.611c2.706 2.709 3.688 6.519 2.336 9.596l-7.385 16.61c8.245 12.671 14.153 26.942 17.472 42.201l16.981 6.641c3.073 1.106 5.166 4.429 5.166 8.367v23.497c0 3.815-2.093 7.14-5.166 8.368l-16.981 6.521c-3.318 15.377-9.227 29.527-17.472 42.324l7.385 16.606c1.353 3.077.37 6.893-2.336 9.596l-16.615 16.609c-2.703 2.708-6.519 3.693-9.595 2.339l-16.607-7.381a128.86 128.86 0 0 1-42.321 17.47l-6.524 16.978c-1.229 3.077-4.551 5.165-8.367 5.165h-23.498c-3.933 0-7.258-2.088-8.366-5.165l-6.642-16.978a129.281 129.281 0 0 1-42.2-17.47l-16.611 7.381c-3.073 1.354-6.887.369-9.595-2.339l-16.607-16.609c-2.707-2.703-3.691-6.519-2.341-9.596l7.385-16.606c-8.245-12.797-14.276-26.947-17.472-42.324l-16.98-6.521c-3.196-1.229-5.165-4.553-5.165-8.368v-23.497c0-3.938 1.969-7.261 5.165-8.367l16.98-6.641c3.196-15.259 9.228-29.53 17.472-42.201l-7.385-16.61c-1.351-3.077-.366-6.887 2.341-9.596l16.607-16.611c2.708-2.828 6.522-3.688 9.595-2.334l16.611 7.378c12.673-8.237 26.945-14.272 42.2-17.468l6.642-16.98c1.108-3.198 4.434-5.166 8.366-5.166h23.498c3.816 0 7.139 1.968 8.367 5.166z" opacity="1" data-original="#415c6c"></path><path fill="#8f9fa9" d="M255.981 362.057c50.444 0 91.413-40.972 91.413-91.414 0-50.321-40.969-91.415-91.413-91.415-50.319 0-91.412 41.094-91.412 91.415 0 50.442 41.093 91.414 91.412 91.414z" opacity="1" data-original="#8f9fa9"></path><path fill="#ffd15d" d="M432.042 506c40.721 0 73.938-33.218 73.938-73.941 0-40.848-33.218-74.063-73.938-74.063-40.723 0-73.945 33.216-73.945 74.063 0 40.723 33.223 73.941 73.945 73.941z" opacity="1" data-original="#ffd15d"></path><path fill="#317a6c" d="M164.2 6h183.563v95.35H164.2z" opacity="1" data-original="#317a6c"></path><path fill="#3c9685" d="M312.084 83.879h-112.08c0-2.955-.743-6.028-2.218-8.86-3.324-6.026-9.596-9.474-16.115-9.474V41.678c2.948 0 6.028-.738 8.859-2.216a18.314 18.314 0 0 0 9.474-15.991h112.08c0 2.949.738 5.903 2.211 8.732a18.323 18.323 0 0 0 15.999 9.475v23.867c-2.952 0-5.906.74-8.737 2.217-6.026 3.32-9.473 9.599-9.473 16.117z" opacity="1" data-original="#3c9685"></path><path fill="#317a6c" d="M263.979 68.253a16.64 16.64 0 0 0 6.643-22.638 16.64 16.64 0 0 0-22.638-6.645c-7.998 4.43-11.07 14.517-6.642 22.638 4.429 8.122 14.639 11.076 22.637 6.645z" opacity="1" data-original="#317a6c"></path><path fill="#cfa94c" d="M438.316 479.056c0 3.447-2.831 6.274-6.273 6.274-3.448 0-6.276-2.827-6.276-6.274v-2.585c-1.6-.246-3.324-.491-4.923-.984-6.644-1.721-12.671-5.288-16.733-10.334-2.212-2.707-1.72-6.52.983-8.732 2.587-2.09 6.524-1.723 8.741.982 2.336 2.956 5.899 5.043 10.088 6.028a24.98 24.98 0 0 0 13.774-.123c2.71-.862 4.925-1.969 6.771-3.199 2.217-1.72 3.691-3.688 4.43-5.901.736-1.973.736-4.186.121-6.278-.369-1.229-.982-2.582-1.844-3.691-4.059-5.536-10.579-6.397-16.857-7.257-9.841-1.23-19.439-2.465-25.716-14.888-.613-1.233-1.104-2.585-1.472-3.813-1.478-5.044-1.231-10.336.98-15.259 2.215-4.798 6.156-8.981 12.061-11.931 1.842-.862 3.691-1.723 5.78-2.341 1.353-.368 2.582-.614 3.815-.861v-2.953c0-3.442 2.828-6.274 6.276-6.274 3.442 0 6.273 2.832 6.273 6.274v2.953c1.106.122 2.091.37 3.077.615 6.396 1.725 12.055 5.043 15.992 9.845 2.218 2.705 1.721 6.644-.989 8.855-2.58 2.095-6.517 1.727-8.729-.982-2.215-2.704-5.536-4.677-9.351-5.657-4.061-.985-8.614-.985-12.795.246-1.479.366-2.71.859-3.815 1.473-3.073 1.478-5.168 3.693-6.277 5.91-.857 2.088-.982 4.428-.363 6.643.117.614.363 1.104.734 1.718 3.197 6.401 9.599 7.262 16.117 8.122 8.857 1.106 18.086 2.341 25.345 12.306 1.722 2.336 2.952 4.796 3.689 7.502 1.355 4.552 1.355 9.354-.248 13.779-1.475 4.429-4.424 8.613-8.974 11.937-2.832 2.092-6.4 3.813-10.581 5.043-.864.245-1.85.492-2.832.738v3.074z" opacity="1" data-original="#cfa94c"></path><path fill="#ffd15d" d="M36.491 499.974c9.598 3.318 22.271 5.044 35.067 5.044 12.55 0 25.223-1.726 34.819-5.044 51.176 19.438 22.019-13.411 24.728-31.131 4.307-28.049-13.901-60.65-33.586-76.28-.126-8.979 1.474-23.497 6.272-32.232-10.461-3.446-21.409-5.044-32.233-5.044-10.948 0-21.779 1.598-32.357 5.044 4.796 8.735 6.396 23.253 6.273 32.232-19.685 15.63-37.771 48.231-33.588 76.28 2.708 17.72-26.451 50.569 24.605 31.131z" opacity="1" data-original="#ffd15d"></path><path fill="#e6bc54" d="M28.125 502.924c2.463-.737 5.289-1.723 8.365-2.95-3.32-1.234-6.272-2.71-8.611-4.429-1.352-.988-3.323-.742-4.307.613-.983 1.353-.737 3.318.619 4.307 1.229.86 2.458 1.722 3.934 2.459zM106.377 499.974c3.196 1.228 5.904 2.213 8.484 2.95 1.477-.737 2.71-1.599 3.939-2.459 1.351-.988 1.598-2.954.615-4.307-.983-1.355-2.951-1.602-4.308-.613-2.334 1.719-5.287 3.194-8.73 4.429z" opacity="1" data-original="#e6bc54"></path><path fill="#cfa94c" d="M77.463 487.67c0 3.445-2.831 6.271-6.275 6.271-3.445 0-6.272-2.826-6.272-6.271v-.983c-.987-.124-1.971-.37-2.954-.619-5.541-1.352-10.457-4.303-13.902-8.61-2.216-2.71-1.727-6.522.98-8.732 2.582-2.22 6.525-1.725 8.738.982 1.719 2.088 4.306 3.569 7.256 4.305 3.2.862 6.892.862 10.214-.122 1.967-.613 3.689-1.352 4.922-2.338 1.597-1.108 2.581-2.46 3.072-3.939.492-1.353.492-2.826.127-4.182-.244-.864-.618-1.603-1.11-2.338l-.245-.245c-2.831-3.938-7.629-4.553-12.427-5.168-8.122-.982-16.116-2.092-21.282-12.549-.495-.982-.988-2.092-1.354-3.195-1.232-4.186-.982-8.738.985-12.92 1.842-4.062 5.167-7.629 10.087-10.094a27.63 27.63 0 0 1 4.797-1.843c.739-.244 1.354-.369 2.094-.615v-1.229c0-3.447 2.827-6.277 6.272-6.277 3.444 0 6.275 2.83 6.275 6.277v1.229c.49.125.982.246 1.475.371 5.289 1.349 9.968 4.181 13.292 8.243 2.089 2.703 1.721 6.643-.988 8.736a6.127 6.127 0 0 1-8.734-.987c-1.598-1.846-3.933-3.197-6.765-3.935a16.053 16.053 0 0 0-9.349.123c-1.112.245-1.968.614-2.832 1.105-2.214 1.105-3.57 2.456-4.308 4.06-.615 1.353-.736 2.828-.245 4.308.124.367.245.739.37 1.105 2.338 4.555 7.015 5.167 11.811 5.78 7.385.863 14.887 1.85 20.913 10.214.128.121.247.248.375.367a23.657 23.657 0 0 1 2.826 5.91c1.106 3.938 1.106 7.997-.246 11.808-1.234 3.693-3.815 7.258-7.624 9.971-2.341 1.719-5.294 3.195-8.614 4.18-.491.125-.988.244-1.355.371z" opacity="1" data-original="#cfa94c"></path><path fill="#e6bc54" d="M105.389 405.361c2.218 2.71 1.845 6.643-.737 8.734-2.707 2.213-6.642 1.844-8.857-.737-2.582-3.199-4.062-7.138-4.922-10.953-.245-1.229-.491-2.457-.614-3.686-6.278 1.352-12.674 1.967-19.07 1.967-8.858 0-17.839-1.231-26.452-3.816-3.319-.982-5.167-4.428-4.184-7.753.982-3.316 4.429-5.167 7.752-4.183 7.38 2.216 15.132 3.323 22.883 3.323 7.75 0 15.501-1.107 22.886-3.323l.245-.121c.984-.372 2.09-.495 3.32-.372 6.033.866 11.566 2.463 16.24 4.432 5.91 2.462 10.581 5.662 13.167 8.489 2.339 2.461 2.212 6.397-.248 8.858-2.457 2.34-6.519 2.217-8.858-.37-1.6-1.719-4.674-3.813-8.979-5.536a30.562 30.562 0 0 0-6.15-2.092c0 .497.119 1.111.244 1.601.491 2.092 1.229 4.062 2.334 5.538z" opacity="1" data-original="#e6bc54"></path></g></g></svg>
