<svg xmlns="http://www.w3.org/2000/svg" version="1.1" xmlns:xlink="http://www.w3.org/1999/xlink" width="512" height="512" x="0" y="0" viewBox="0 0 180 180" style="enable-background:new 0 0 512 512" xml:space="preserve" class=""><g><g fill="none" fill-rule="evenodd"><path fill="#f1453d" d="M0 0h180v180H0z" opacity="1" data-original="#f1453d"></path><path fill="#4eab53" d="M0 120h180v60H0z" opacity="1" data-original="#4eab53"></path><path fill="#2b98f0" d="M0 0h180v60H0z" opacity="1" data-original="#2b98f0" class=""></path><g transform="translate(27 51)"><circle cx="39" cy="39" r="38.345" fill="#fee94e" opacity="1" data-original="#fee94e"></circle><g fill="#000"><path d="M38.22 45.5v.796c-4.417.185-6.553 1.963-6.79 4.498-.513 5.507-1.53 9.786-1.53 9.786s1.637-2.019 3.552-6.753c.88-2.178 2.825-3.552 4.768-3.847v.563c-1.997.533-3.51 3.078-3.51 6.137s1.513 5.604 3.51 6.137v1.781c-2.581.067-5.099.634-6.414 1.671-2.32 1.83-8.976 8.573-8.245 7.94 15.65 6.39 30.318.393 30.318.393s-5.537-5.993-8.375-8.333c-1.195-.984-3.39-1.527-5.724-1.65V45.5h5.72v-1.56h-5.72V30.922v2.613c2.999-.047 6.797-.509 7.02-4.805.152-2.93 1.17-5.85 1.17-5.85s-2.163 2.6-2.99 4.29c-1.484 3.035-3.222 3.651-5.2 3.752v-1.08a5.201 5.201 0 0 0 0-10.284v-5.47c1.522-1.262 3.243-3.208 4.963-6.305.948-1.707.495-2.456.497-2.453l-.002-.003s.05.11-.653.72c-1.54 1.334-3.225 2.206-4.805 2.928V.78h-1.56v8.89c-2.35 1.042-4.216 1.973-4.59 4.041-.05.276-.112 3.133-.18 3.832 0 0 .401.053 1.352-.721.418-.34 1.696-.557 3.418-1.612v4.348a5.201 5.201 0 0 0 0 10.284v1.08c-1.978-.101-3.716-.717-5.2-3.752-.827-1.69-2.99-4.29-2.99-4.29s1.018 2.92 1.17 5.85c.223 4.296 4.021 4.758 7.02 4.805v.785H32.5v1.56h5.72v.775c-2.502.238-4.42 1.605-4.42 3.255s1.918 3.017 4.42 3.255v.775H32.5v1.56zm1.56 0v.796c4.417.185 6.553 1.963 6.79 4.498.513 5.507 1.53 9.786 1.53 9.786s-1.637-2.019-3.552-6.753c-.88-2.178-2.825-3.552-4.768-3.847v.563c1.997.533 3.51 3.078 3.51 6.137s-1.513 5.604-3.51 6.137zm0-1.56v-.775c2.502-.238 4.42-1.605 4.42-3.255s-1.918-3.017-4.42-3.255v-.775h5.72v-1.56h-5.72v-.785z" fill="#000000" opacity="1" data-original="#000000"></path><path d="M77.995 39C77.995 17.464 60.536.005 39 .005S.005 17.464.005 39 17.464 77.995 39 77.995 77.995 60.536 77.995 39zm-76.69 0C1.305 18.182 18.182 1.305 39 1.305S76.695 18.182 76.695 39 59.818 76.695 39 76.695 1.305 59.818 1.305 39z" fill="#000000" opacity="1" data-original="#000000"></path></g></g></g></g></svg>
