<svg xmlns="http://www.w3.org/2000/svg" version="1.1" xmlns:xlink="http://www.w3.org/1999/xlink" width="512" height="512" x="0" y="0" viewBox="0 0 512 512" style="enable-background:new 0 0 512 512" xml:space="preserve" class=""><g><path fill="#3498db" d="M16 16h480v480H16z" opacity="1" data-original="#3498db" class=""></path><path fill="#ffffff" d="M252.296 155.832s9.302.702 11.372.987c2.07.304 6.037 1.576 8.505 1.481 2.468-.09 5.942-1.576 6.626-1.385l1.879 1.197 2.772 2.07 1.576 2.866h3.853c.494.21 1.367 4.176 4.253 4.746 7.518 1.48 8.562-2.278 12.359-1.48 3.759.797 1.993 3.473 4.158 4.157 2.183.683 3.056-.987 3.056-.987s3.873 7.897 3.57 10.384c0 0 1.879.684 3.853-3.075 0 0 4.044.106 6.816 1.29 2.771 1.198 8.714 2.962 8.714 2.962l1.974 2.089 2.373.284.892 2.563s2.07-2.165 3.854-1.576c1.785.607 6.322 5.638 6.322 5.638s-.588 7.12-.19 9.208c.399 2.07 3.17 9.587 3.17 9.587s-.113 2.867.893 5.24c.968 2.373 2.26 4.651 1.974 6.53-.303 1.861-2.771 4.538-2.771 4.538s2.069.797 1.88 3.17c-.21 2.373-3.76 8.505-3.76 8.505s5.525.684 7.898 2.468c2.373 1.785 3.569 3.36 5.353 4.158 1.766.778 7.31-.607 7.31-.607s-1.785 2.183-1.785 4.955 2.962 8.903 2.962 8.903l-2.962 2.753v5.145l-1.386 2.962s2.582 3.967 6.341 4.556c0 0-2.582 5.145-3.17 9.492-.589 4.348.208 7.518.208 7.518l-4.366 1.385-3.55 6.531-2.373.588s3.037 9.093 1.822 12.53l-3.417.683-2.753 3.095-2.923-.514-2.07 6.17 1.899 5.145-4.974-.323 1.196 3.075.702 1.728s-7.556 3.588-10.308 3.949c0 0 .512 4.974 2.752 6.34 0 0-3.948 1.044-4.822 2.772l-1.88 3.76 2.393 2.068s-3.436-1.556-5.828-.701c-2.412.873-4.291 2.582-4.823 3.607l-4.252 1.784-1.67 1.785-1.482-1.48-6.132 5.922.684-3.36-5.639 1.083-1.082-2.943-4.84 3.835-2.09-1.081-2.847 4.158-4.461-1.975c-1.69.091-4.443.987-6.436.588-1.974-.4-5.525-3.664-6.322-3.57l-1.29 1.88-2.165-.493-2.582.493-2.26-1.67-2.885 1.88-2.07-2.773-6.91-3.759 4.044-3.075.703-3.36 4.537-4.14-.095-3.473c.19-1.273 1.29-2.164 1.29-4.044s-3.568-12.644-5.239-12.853c-1.69-.21-2.905 3.93-5.145 4.652-4.65 1.48-16.611-4.86-18.7-5.26-2.069-.379-6.113.894-8.087 0-1.993-.89-1.595-1.765-1.595-1.765l-2.07 1.576-4.157-.987c-2.563.4-2.335 2.544-4.157 2.867-2.184.399-14.827-.988-14.827-.988l.095 2.278s-7.025-4.062-9.19-4.746c-2.182-.703-5.846-.893-7.916-2.164-2.069-1.29-3.056-3.968-5.24-4.556-2.183-.608-6.53.683-6.53.683l-.19-6.132h-5.24s1.766-3.854 1.291-7.12c-.493-3.264-2.278-10.384-2.278-10.384l-4.063.892-1.082-3.266 1.88-2.164-3.95-2.772-1.1-4.442-1.082 1.083.797 2.278s-6.93-.702-8.22-3.075c-1.272-2.373-1.975-6.113-1.671-7.917 0 0 4.044.702 6.227 0l-2.07-12.644 4.538-4.84.607-3.171 3.152-.091-2.183-4.747.114-3.569-1.975-.09-1.88 3.15-1.1-.379.607-3.17-1.101-1.291.095-3.36-2.468-.588-1.975-2.772-1.575 1.1-.21 1.672-2.866-.988-2.278-1.88-1.86-2.866 1.974-4.157 5.03-2.07-3.36-2.677-1.879-2.771s-6.815-2.962-8.296-5.525c-1.48-2.582-5.335-14.238-5.05-21.073 0 0 1.386-1.576 3.056 1.197 1.69 2.772 4.747 7.518 7.632 9.587 2.867 2.088 6.72 2.563 9.777 4.651 3.076 2.07 4.158 3.95 6.531 5.24 2.373 1.273 7.214 1.576 9.492 3.17 2.279 1.576 6.531 7.006 9.094 8.202 2.563 1.177 4.86-1.974 4.86-1.974s3.55 0 5.62-.494c2.088-.512 4.746-1.69 5.638-2.98 0 0 3.36.207 6.436-.286 3.056-.494 5.335-1.385 5.335-1.385l-.988-3.95s1.386-2.277 5.24-1.498c0 0-.797-5.62 2.563-8.98l-.987-2.677 2.183-2.771.095-3.76 1.196-2.866-1.196-2.278 4.461-3.76-1.29-2.657s1.176-3.664.19-6.037l3.36-1.576 4.556-3.36 1.386.588s.285-5.05 2.373-6.531c2.07-1.481 5.828-1.88 5.828-1.88s.684-2.164-1.29-3.455l2.676-.588 4.044 3.266 1.196-1.899 2.772-.891 2.562-6.227 1.88 4.556" opacity="1" data-original="#ffffff"></path></g></svg>
