<svg xmlns="http://www.w3.org/2000/svg" version="1.1" xmlns:xlink="http://www.w3.org/1999/xlink" width="512" height="512" x="0" y="0" viewBox="0 0 512 512" style="enable-background:new 0 0 512 512" xml:space="preserve" class=""><g><path fill="#2980b9" d="M505.985 5.921v166.72H5.825V5.921z" opacity="1" data-original="#2980b9"></path><path fill="#222222" d="M505.985 172.641H5.825v333.44h500.16v-166.72z" opacity="1" data-original="#222222"></path><g fill="#f1c40f"><path d="M250.419 49.426c-5.567 9.18-6.23 16.524-2.432 29.205 1.83 5.918 3.839 14.755 4.683 19.546 1.125 6.763 1.007 7.406 1.166 8.877 1.407 0 4.604.005 6.083-.004.212-2.341.384-5.044.883-8.76.582-4.334 2.308-13.397 4.165-19.691 3.71-12.58 3.461-20.297-2.308-29.033-2.11-3.24-4.924-5.917-6.19-5.917s-4.131 2.474-6.05 5.777zM277.754 75.402c-7.88 3.381-12.618 12.743-15.207 25.644-.478 2.422-.595 3.277-.834 6.008 1.705.006 2.375.018 4.038.008.364-1.837.626-2.806 1.428-5.413 3.18-10.083 12.545-14.13 12.123-4.69-.141 2.607-1.24 4.063-2.463 5.46 1.512-.377 4.722-1.878 7.325-3.357 14.492-8.736 8.785-30.142-6.41-23.66zM245.557 110.344c6.36.029 17.35.08 22.628.051.006-1.358.026-.665.039-1.762-3.886-.033-18.767.02-22.636.02.008.71-.01 1.055-.03 1.691zM247.428 117.8c-2.293 2.475-5.874 4.325-5.874 4.325s3.168.357 6.122.14c2.954-.215 4.593-.584 6.34-1.433-.475 3.525-.502 6.929-.502 6.929.43 4.536.916 5.697 1.898 7.905 1.333 1.842 2.108 1.852 3.088-.092 1.059-2.178 1.756-4.418 1.977-7.834-.077-2.561-.22-3.734-.825-6.864 2.044.885 3.335 1.115 6.384 1.39 3.12.281 5.989.143 5.989.143s-4.215-2.118-6.07-4.716c-1.832-2.565-1.441-2.129-2.773-5.432-1.618-.077-9.822-.002-12.425-.002-1.425 3.012-1.569 3.641-3.33 5.542zM235.844 75.397c7.88 3.382 12.618 12.743 15.207 25.644.478 2.422.595 3.278.834 6.008-1.705.007-2.375.018-4.038.009-.364-1.837-.626-2.807-1.428-5.414-3.18-10.083-12.545-14.13-12.122-4.69.14 2.608 1.239 4.063 2.462 5.46-1.512-.377-4.722-1.877-7.325-3.357-14.492-8.736-8.785-30.141 6.41-23.66zM85.219 48.626c-5.567 9.18-6.23 16.524-2.432 29.205 1.83 5.918 3.839 14.755 4.683 19.546 1.125 6.763 1.007 7.406 1.166 8.877 1.407 0 4.604.005 6.083-.004.212-2.341.384-5.044.883-8.76.582-4.334 2.308-13.397 4.165-19.691 3.71-12.58 3.461-20.297-2.308-29.033-2.11-3.24-4.924-5.917-6.19-5.917s-4.131 2.474-6.05 5.777zM112.554 74.602c-7.88 3.381-12.618 12.743-15.207 25.644-.478 2.422-.595 3.277-.834 6.008 1.705.006 2.375.018 4.038.008.364-1.837.626-2.806 1.428-5.413 3.18-10.083 12.545-14.13 12.123-4.69-.141 2.607-1.24 4.063-2.463 5.46 1.512-.377 4.722-1.878 7.325-3.357 14.492-8.736 8.785-30.142-6.41-23.66zM80.357 109.544c6.36.029 17.35.08 22.628.051.006-1.358.026-.665.039-1.762-3.886-.033-18.767.02-22.636.02.008.71-.01 1.055-.03 1.691zM82.228 117c-2.293 2.475-5.874 4.325-5.874 4.325s3.168.357 6.122.14c2.954-.215 4.593-.584 6.34-1.433-.475 3.525-.502 6.929-.502 6.929.43 4.536.916 5.697 1.898 7.905 1.333 1.842 2.108 1.852 3.088-.092 1.059-2.178 1.756-4.418 1.977-7.834-.077-2.561-.22-3.734-.825-6.864 2.044.885 3.335 1.115 6.384 1.39 3.12.281 5.989.143 5.989.143s-4.215-2.118-6.07-4.716c-1.832-2.565-1.441-2.129-2.773-5.432-1.618-.077-9.822-.002-12.425-.002-1.425 3.012-1.569 3.641-3.33 5.542zM70.644 74.597c7.88 3.382 12.618 12.743 15.207 25.644.478 2.422.595 3.278.834 6.008-1.705.007-2.375.018-4.038.009-.364-1.837-.626-2.807-1.428-5.414-3.18-10.083-12.545-14.13-12.122-4.69.14 2.608 1.239 4.063 2.462 5.46-1.512-.377-4.722-1.877-7.325-3.357-14.492-8.736-8.785-30.141 6.41-23.66zM414.019 47.426c-5.567 9.18-6.23 16.524-2.432 29.205 1.83 5.918 3.839 14.755 4.683 19.546 1.125 6.763 1.007 7.406 1.166 8.877 1.407 0 4.604.005 6.083-.004.212-2.341.384-5.044.883-8.76.582-4.334 2.308-13.397 4.165-19.691 3.71-12.58 3.461-20.297-2.308-29.033-2.11-3.24-4.924-5.917-6.19-5.917s-4.131 2.474-6.05 5.777zM441.354 73.402c-7.88 3.381-12.618 12.743-15.207 25.644-.478 2.422-.595 3.277-.834 6.008 1.705.006 2.375.018 4.038.008.364-1.837.626-2.806 1.428-5.413 3.18-10.083 12.545-14.13 12.123-4.69-.141 2.607-1.24 4.063-2.463 5.46 1.512-.377 4.722-1.878 7.325-3.357 14.492-8.736 8.785-30.142-6.41-23.66zM409.157 108.344c6.36.029 17.35.08 22.628.051.006-1.358.026-.665.039-1.762-3.886-.033-18.767.02-22.636.02.008.71-.01 1.055-.03 1.691zM411.028 115.8c-2.293 2.475-5.874 4.325-5.874 4.325s3.168.357 6.122.14c2.954-.215 4.593-.584 6.34-1.433-.475 3.525-.502 6.929-.502 6.929.43 4.536.916 5.697 1.898 7.905 1.333 1.842 2.108 1.852 3.088-.092 1.059-2.178 1.756-4.418 1.977-7.834-.077-2.561-.22-3.734-.825-6.864 2.044.885 3.335 1.115 6.384 1.39 3.12.281 5.989.143 5.989.143s-4.215-2.118-6.07-4.716c-1.832-2.565-1.441-2.129-2.773-5.432-1.618-.077-9.822-.002-12.425-.002-1.425 3.012-1.569 3.641-3.33 5.542zM399.444 73.397c7.88 3.382 12.618 12.743 15.207 25.644.478 2.422.595 3.278.834 6.008-1.705.007-2.375.018-4.038.009-.364-1.837-.626-2.807-1.428-5.414-3.18-10.083-12.545-14.13-12.122-4.69.14 2.608 1.239 4.063 2.462 5.46-1.512-.377-4.722-1.877-7.325-3.357-14.492-8.736-8.785-30.141 6.41-23.66z" fill="#f1c40f" opacity="1" data-original="#f1c40f"></path></g><g fill="green"><path d="M333.997 373.11c0 .829 2.812 2.65 6.285 4.14 5.789 2.485 12.736 4.969 64.01 23.35 21.998 7.95 30.599 10.268 30.599 8.115 0-.828-19.848-8.115-44.162-16.063-24.48-8.115-47.14-16.064-50.447-17.885-3.473-1.656-6.285-2.319-6.285-1.656zM357.319 387.47c.992 1.657 61.694 26.497 71.949 29.478 3.804 1.159 5.458-1.988 1.654-3.312-1.158-.332-12.57-4.472-25.307-9.108-19.517-7.121-29.275-10.764-46.973-17.885-1.489-.497-1.985-.166-1.323.828zM171.97 288.326c1.864 4.556 8.477 7.67 17.35 8.437 6.007.426 3.252-2.164-5.141-5.222-3.942-1.26-8.534-3.639-10.484-5.054-3.433-2.661-3.433-2.661-1.725 1.839zM88.379 254.234c4.796 7.121 10.254 12.255 20.84 19.375 7.774 5.3 14.555 9.44 14.886 9.108.662-.828-38.042-36.763-40.688-37.756-.993-.332 1.157 3.808 4.962 9.273zM187.958 292.15c3.591 1.676 8.177 2.997 10.49 3.075 2.732.092 2.007-.58-3.094-2.566-3.993-1.56-8.768-4.184-10.887-5.81-3.8-3.11-3.8-3.11-3.402-.374.228 1.562 3.092 3.992 6.893 5.675z" fill="" opacity="1"></path><path d="M165.62 259.84c2.316 9.274 11.909 26.331 15.217 26.994 2.977.496 2.977.33.496-2.484-4.135-4.803-13.067-22.356-13.067-25.668 0-1.822-.827-3.147-1.819-3.147-1.158 0-1.489 1.656-.827 4.306zM66.203 248.213c-.058.326 3.047 2.724 6.937 5.428 3.89 2.705 8.423 6.532 9.928 8.48 2.578 3.481 17.18 12.113 18.55 11.01 1.342-.941-17.468-16.2-25.421-20.632-9.468-5.37-9.793-5.428-9.994-4.286z" fill="" opacity="1"></path><path d="M71.531 260.953c0 .331 3.474 2.153 7.774 4.14 4.3 1.987 9.428 4.968 11.247 6.624 3.143 2.98 19.021 8.942 20.179 7.618 1.158-1.16-20.013-12.917-28.614-15.898-10.255-3.643-10.586-3.643-10.586-2.484zM145.3 266.796c6.285 11.592 12.735 19.21 15.382 18.382 1.323-.497-1.654-5.3-8.105-13.083-5.789-6.79-10.75-12.751-11.247-13.248s1.323 3.147 3.97 7.949zM153.428 262.278c0 1.821 6.45 14.407 10.255 19.706 2.15 2.98 4.63 4.637 7.443 4.637 4.135 0 4.135 0-2.15-7.12-3.64-3.81-8.436-9.606-10.917-12.752-2.48-3.147-4.631-5.134-4.631-4.471zM138.22 267.624c0 2.484 12.092 19.044 13.965 19.044.851 0-1.192-3.974-4.768-8.776-8.004-10.93-9.196-12.09-9.196-10.268zM126.799 313.258c-10.917 4.306-13.232 5.796-13.232 8.114 0 .994 1.158.828 2.977-.662 1.489-1.49 6.947-3.478 11.909-4.637s10.916-3.146 13.232-4.305l4.135-2.153h-4.962c-2.647.165-9.097 1.821-14.06 3.643z" fill="" opacity="1"></path><path d="M95.802 285.127c8.156 7.426 35.433 21.453 49.254 25.58 3.745 1.102 9.822 1.355 13.255.632l6.401-1.275-6.317-3.337c-10.19-5.274-26.925-16.446-32.932-21.835-6.544-5.898-6.332-3.86.326 4.287 2.601 3.281 10.29 8.938 17.032 12.474 6.798 3.69 11.547 7.07 10.77 7.353-2.02.737-20.677-9.911-34.867-19.896-15.42-10.946-16.057-11.243-10.317-4.17 2.813 3.38 8.014 8.005 11.788 10.154 3.675 2.362 6.19 4.441 5.414 4.724-1.555.567-11.222-4.722-23.843-12.81-3.52-2.42-8.31-5.431-10.389-6.789-2.29-1.456-.24.792 4.425 4.908z" fill="" opacity="1"></path><path d="m97.003 282.811-6.616 2.153 4.962.828c2.646.663 6.12.331 7.774-.497 1.488-.828 4.466-1.49 6.616-1.656 3.639 0 3.639-.165.496-1.49-4.135-1.822-5.127-1.822-13.232.662zM105.155 287.306c-2.812 2.153-2.646 2.319 3.473 1.325 3.64-.497 8.932-1.49 11.578-2.153 4.3-1.159 3.97-1.325-3.473-1.49-4.962-.166-9.593.828-11.578 2.318z" fill="" opacity="1"></path><path d="M64.064 269.895c27.291 4.968 82.039 23.35 78.73 26.496-.826.828-16.208-2.98-18.359-4.471-.827-.828-8.931-.497-17.863.662-16.705 1.822-19.517 3.312-19.186 10.102.165 3.312.165 3.312.992 0 1.489-6.128 3.97-7.452 13.398-7.452 10.254 0 38.372 4.14 50.777 7.452 16.54 4.636 17.037 4.636 11.578 1.656-7.112-3.975-17.863-11.261-19.848-13.414-3.638-4.14-69.633-22.356-79.226-22.025-4.466.331-4.631.331-.993.994z" fill="" opacity="1"></path><path d="M76.611 278.719c-1.984 1.49-4.135 4.968-4.63 7.783-.993 4.802-.993 4.802 1.653 1.656 6.947-8.777 7.443-9.108 16.044-9.274 6.947-.165 7.94-.496 4.631-1.49-6.947-2.153-13.893-1.656-17.698 1.325zM160.918 288.938c1.324 2.319 14.225 8.777 15.217 7.784.496-.497-.992-1.822-2.977-2.981-2.15-1.16-4.962-2.981-6.12-4.306-2.646-2.484-7.608-2.98-6.12-.497zM161.914 304.672c1.323 2.318 14.224 8.777 15.216 7.783.497-.497-.992-1.822-2.977-2.98-2.15-1.16-4.962-2.982-6.12-4.306-2.646-2.484-7.608-2.981-6.12-.497z" fill="" opacity="1"></path><path d="M143.422 284.954c.238-.23 3.96 1.007 8.375 2.723 4.415 1.717 10.118 3.34 12.572 3.5 4.325.192 19.638 7.486 19.49 9.24-.028 1.64-23.183-5.44-31.299-9.564-9.74-4.855-9.97-5.093-9.138-5.899z" fill="" opacity="1"></path><path d="M170.818 297.057c-3.085 1.194-6.188 3.353-7.153 4.898-1.139 1.826-.175 1.843 3.805-.158 3.12-1.563 7.626-2.845 10.098-3.056 4.629-.228 4.629-.228 1.683-2.071-1.683-1.053-5.26-.947-8.433.387z" fill="" opacity="1"></path><path d="M151.77 308.941c-9.427 8.465-11.511 14.367-8.492 23.135l2.61 7.509-.726-7.6c-1.124-10.43 1.684-15.173 13.097-23.413 5.364-3.835 9.627-7.311 9.525-7.626-.562-1.732-11.22 3.476-16.014 7.995zM93.412 241.246c5.127 9.77 25.967 32.292 37.545 40.903 3.143 2.319 8.767 4.637 12.24 5.134l6.45.994-4.796-5.3c-7.774-8.445-19.683-24.674-23.487-31.795-4.135-7.783-4.63-5.796-1.158 4.14 1.324 3.975 6.616 11.923 11.744 17.554 5.127 5.796 8.435 10.598 7.608 10.598-2.15 0-16.044-16.394-25.968-30.636-10.75-15.566-11.247-16.063-8.27-7.452 1.49 4.14 4.797 10.267 7.609 13.58 2.646 3.477 4.3 6.292 3.473 6.292-1.654 0-8.931-8.28-18.028-20.203-2.481-3.478-5.955-7.949-7.443-9.936-1.654-2.153-.497.662 2.48 6.127z" fill="" opacity="1"></path><path d="M146.764 287.614c0 1.16 2.481 4.14 5.459 6.458 8.766 6.624 32.087 17.72 35.064 16.56 1.82-.662-.992-2.484-8.931-5.464-13.894-5.465-26.63-12.752-26.63-15.236 0-1.324 5.459-1.49 19.021-.662 20.345 1.16 26.464-1.16 7.94-2.815-19.518-1.987-31.923-1.49-31.923 1.16zM103.099 305.333c-7.112 1.656-10.917 4.14-10.917 7.121 0 1.16.662.994 1.489-.331 1.323-2.153 14.886-6.127 16.21-4.803.33.332-.166 2.816-1.159 5.3s-1.323 4.968-.827 5.464c.497.663 1.324-.662 1.82-2.484 1.985-7.12 8.104-9.273 22.825-7.948 7.443.662 15.713 1.49 18.36 1.656 2.811.165 6.615 1.159 8.6 2.318 4.3 2.318 21.006 2.484 19.517.166-.496-.828-3.638-1.988-7.112-2.484-3.308-.497-10.255-2.153-15.382-3.478-10.255-2.65-43.004-2.98-53.424-.497zM163.498 324.448c-12.466-2.226-18.395-.237-23.437 7.544l-4.302 6.682 5.533-5.252c7.517-7.308 12.98-8.013 26.491-4.082 6.321 1.872 11.682 3.095 11.867 2.82 1.017-1.51-9.644-6.712-16.152-7.712z" fill="" opacity="1"></path><path d="M147.356 319.835c-22.99 6.293-25.637 8.611-22.329 19.044 1.323 3.974 1.323 3.809 1.489-1.325.165-2.815 1.654-6.79 3.308-8.445 2.977-2.981 16.374-6.79 32.749-9.44 3.97-.496 6.616-1.656 6.12-2.484-1.324-2.152-6.616-1.49-21.337 2.65zM166.896 327.926c-11.578 5.133-15.382 10.101-15.217 19.375l.165 7.949 1.654-7.452c2.15-10.267 6.286-13.91 19.683-18.216 6.285-1.987 11.413-3.975 11.413-4.306 0-1.821-11.744-.165-17.698 2.65z" fill="" opacity="1"></path><path d="M164.698 342.143c-1.984 2.65-3.473 6.127-3.473 7.949 0 2.153.827 1.656 3.143-2.153 1.819-2.98 4.962-6.458 6.946-7.949 3.805-2.65 3.805-2.65.331-2.65-1.985 0-4.962 1.988-6.947 4.803zM343.523 369.13c5.37 2.33 33.236 9.366 52.952 15.147 19.717 5.781 42.769 12.436 47.871 13.153 7.293-15.916-5.98 13.854 1.595-4.189-9.846-2.51-48.66-11.652-64.235-16.134-13.428-3.764-32.477-9.636-37.355-10.711s-4.946.942-.828 2.734z" fill="" opacity="1"></path><path d="M346.93 364.998c5.449 2.142 33.543 8.2 53.448 13.288 19.906 5.088 43.176 10.934 48.3 11.472 6.734-16.16-5.493 14.054 1.449-4.242-9.929-2.164-49.037-9.945-64.76-13.88-13.55-3.292-32.792-8.495-37.705-9.4s-4.91 1.115-.732 2.762zM339.215 372.132c5.242 2.609 32.702 11.095 52.089 17.901 19.387 6.806 42.06 14.66 47.117 15.644 8.115-15.512-6.695 13.521 1.812-4.1-9.702-3.022-47.984-14.186-63.304-19.477-13.213-4.463-31.928-11.325-36.744-12.655-4.816-1.33-4.988.682-.97 2.687z" fill="" opacity="1"></path><path d="M335.87 375.523c5.099 2.88 32.077 12.794 51.082 20.606 19.004 7.813 41.235 16.844 46.235 18.091 8.915-15.065-7.393 13.152 2.024-3.999-9.531-3.526-47.177-16.681-62.2-22.768-12.96-5.149-31.292-12.982-36.032-14.562s-5.017.419-1.108 2.632z" fill="" opacity="1"></path><path d="M332.72 379.795c4.995 3.056 31.612 13.906 50.332 22.378 18.72 8.472 40.624 18.275 45.577 19.696 9.434-14.745-7.847 12.885 2.162-3.926-9.403-3.857-46.567-18.32-61.368-24.928-12.774-5.598-30.821-14.067-35.503-15.812s-5.028.243-1.2 2.592z" fill="" opacity="1"></path><path d="M329.165 383.688c4.828 3.313 30.84 15.544 49.093 24.985 18.252 9.44 39.612 20.378 44.485 22.056 10.192-14.23-8.51 12.457 2.364-3.807-9.188-4.344-45.545-20.734-59.981-28.109-12.464-6.26-30.043-15.663-34.627-17.651-4.584-1.988-5.035-.02-1.334 2.526z" fill="" opacity="1"></path></g><path fill="#f1c40f" d="m271.51 418.858 5.356 3.83c7.678 5.356 11.9 12.799 11.483 20.48l-.284 6.344 2.52-6.241c2.758-6.532 2.378-16.423-.879-23.748l-1.9-4.272 6.034 2.63c8.623 3.641 14.3 10.041 15.486 17.645l1.04 6.264 1.168-6.632c1.34-6.964-1.083-16.556-5.792-23.043l-2.746-3.785 6.45 1.316c9.189 1.767 16.07 6.847 18.81 14.037l2.319 5.912-.235-6.731c-.135-7.09-4.499-15.97-10.45-21.336l-3.472-3.13 6.581-.053c9.356-.185 17.143 3.35 21.315 9.816l3.494 5.297-1.626-6.534c-1.604-6.904-7.716-14.682-14.652-18.691l-4.046-2.34 6.427-1.421c9.112-2.131 17.463-.291 22.886 5.162l4.518 4.455-2.949-6.053c-3.002-6.42-10.596-12.758-18.213-15.235l-4.443-1.443 5.99-2.73c8.47-3.98 17.021-3.919 23.458.285l5.346 3.419-4.14-5.308c-4.271-5.657-13.015-10.272-20.98-11.11l-4.645-.487 5.294-3.918c7.458-5.655 15.834-7.378 23.004-4.604l5.939 2.23-5.152-4.329c-5.353-4.643-14.864-7.339-22.829-6.5l-4.645.488 4.364-4.933c6.121-7.084 13.957-10.512 21.546-9.29l6.272.943-5.94-3.16c-6.2-3.428-16.061-4.085-23.678-1.607l-4.444 1.444 3.243-5.732c4.517-8.205 11.47-13.188 19.146-13.576l6.331-.38-6.466-1.855c-6.776-2.062-16.559-.65-23.495 3.357l-4.046 2.338 1.983-6.283c2.715-8.965 8.48-15.286 15.909-17.262l6.114-1.69-6.71-.47c-7.056-.607-16.333 2.808-22.284 8.174l-3.472 3.13.635-6.558c.793-9.337 5.12-16.718 11.976-20.2l5.63-2.924-6.66.937c-7.03.875-15.393 6.147-20.1 12.634l-2.747 3.785-.74-6.547c-1.163-9.295 1.535-17.42 7.519-22.25l4.898-4.033-6.32 2.303c-6.693 2.319-13.779 9.217-17.036 16.542l-1.9 4.275-2.085-6.251c-3.068-8.85-2.115-17.358 2.735-23.327l3.955-4.965-5.705 3.566c-6.065 3.662-11.564 11.884-13.23 19.728l-.97 4.576-3.337-5.679c-4.839-8.02-5.673-16.538-2.17-23.389l2.837-5.679-4.839 4.676c-5.172 4.845-8.843 14.035-8.843 22.052v4.677l-4.444-4.86c-6.396-6.835-8.982-14.997-6.977-22.426l1.593-6.146-3.761 5.584c-4.054 5.813-5.736 15.565-4.07 23.41l.97 4.575-5.356-3.83c-7.678-5.355-11.9-12.799-11.482-20.483l.282-6.344-2.52 6.244c-2.757 6.532-2.377 16.42.879 23.746l1.9 4.274-6.034-2.631c-8.622-3.64-14.3-10.041-15.485-17.643l-1.04-6.265-1.168 6.631c-1.34 6.962 1.082 16.558 5.792 23.045l2.745 3.782-6.448-1.317c-9.19-1.766-16.072-6.844-18.811-14.036l-2.318-5.91.234 6.73c.135 7.09 4.5 15.97 10.45 21.334l3.472 3.13-6.581.053c-9.356.186-17.142-3.35-21.315-9.812l-3.494-5.3 1.626 6.533c1.604 6.908 7.716 14.685 14.652 18.695l4.046 2.338-6.426 1.421c-9.113 2.13-17.464.293-22.887-5.16l-4.518-4.457 2.948 6.053c3.003 6.422 10.597 12.756 18.214 15.233l4.444 1.446-5.992 2.729c-8.47 3.98-17.02 3.92-23.458-.285l-5.346-3.419 4.14 5.306c4.272 5.657 13.015 10.272 20.98 11.11l4.646.49-5.294 3.916c-7.459 5.657-15.835 7.377-23.005 4.604l-5.939-2.229 5.152 4.328c5.353 4.645 14.864 7.339 22.829 6.5l4.646-.487-4.365 4.931c-6.121 7.087-13.957 10.512-21.546 9.293l-6.271-.946 5.939 3.163c6.2 3.428 16.062 4.084 23.68 1.606l4.443-1.445-3.244 5.735c-4.517 8.203-11.47 13.188-19.146 13.573l-6.331.379 6.466 1.857c6.776 2.063 16.559.65 23.495-3.357l4.046-2.34-1.982 6.283c-2.715 8.967-8.48 15.29-15.909 17.265l-6.114 1.69 6.71.47c7.057.605 16.333-2.81 22.284-8.177l3.472-3.13-.635 6.561c-.793 9.334-5.12 16.718-11.976 20.197l-5.63 2.926 6.661-.935c7.029-.875 15.392-6.151 20.1-12.638l2.746-3.783.741 6.549c1.163 9.294-1.536 17.416-7.52 22.247l-4.9 4.034 6.322-2.302c6.693-2.318 13.779-9.22 17.037-16.544l1.899-4.273 2.084 6.248c3.068 8.853 2.115 17.358-2.735 23.33l-3.955 4.965 5.705-3.568c6.065-3.661 11.564-11.885 13.23-19.729l.97-4.574 3.337 5.68c4.84 8.019 5.673 16.539 2.17 23.388l-2.837 5.68 4.839-4.679c5.172-4.842 8.843-14.031 8.843-22.05v-4.678l4.444 4.862c6.396 6.835 8.982 14.996 6.978 22.425l-1.595 6.147 3.761-5.584c4.054-5.816 5.736-15.566 4.072-23.41l-.971-4.575" opacity="1" data-original="#f1c40f"></path></g></svg>
