<svg xmlns="http://www.w3.org/2000/svg" version="1.1" xmlns:xlink="http://www.w3.org/1999/xlink" width="512" height="512" x="0" y="0" viewBox="0 0 180 180" style="enable-background:new 0 0 512 512" xml:space="preserve"><g><g fill="none" fill-rule="evenodd"><path fill="#4eab53" d="M0 0h180v180H0z" opacity="1" data-original="#4eab53"></path><path fill="#fee94e" d="m90.22 34.5-2.253 6.966h-7.302l5.906 4.306-2.255 6.964 5.903-4.3 5.904 4.3-2.256-6.964 5.907-4.306h-7.302zM61.41 46.722l1.479 4.846-4.14 2.905 5.05.09 1.476 4.846 1.646-4.792 5.05.086-4.033-3.048 1.643-4.793-4.14 2.909zm57.618 0-4.032 3.049-4.139-2.909 1.643 4.793-4.032 3.048 5.05-.086 1.645 4.792 1.476-4.846 5.05-.09-4.14-2.905zm-67.184 16.01-2.134 4.593-5.01-.618 3.692 3.455-2.134 4.596 4.416-2.458 3.693 3.455-.961-4.975 4.412-2.457-5.01-.615zm76.75 0-.963 4.976-5.011.615 4.413 2.457-.962 4.975 3.693-3.455 4.416 2.458-2.134-4.596 3.693-3.455-5.01.618z" opacity="1" data-original="#fee94e"></path><path fill="#ffffff" d="M90.22 58.618c-6.559 5.687-10.713 14.093-10.713 23.467 0 6.376 1.921 12.303 5.213 17.233a30.925 30.925 0 0 1-6.45-18.953c0-4.74 1.062-9.233 2.96-13.252a12.425 12.425 0 0 1-2.868-4.962 30.927 30.927 0 0 0-3.997 15.252 30.924 30.924 0 0 0 6.047 18.418c-6.616-6.96-15.946-11.3-26.28-11.3-.556 0-1.108.015-1.658.04a12.475 12.475 0 0 1 2.571 3.4c10.28.016 19.56 4.327 26.161 11.237-6.303-5.283-14.417-8.465-23.266-8.465-4.945 0-9.66.993-13.958 2.792 4.416 11.71 15.697 20.045 28.908 20.045.855 0 1.703-.039 2.54-.108-1.782.322-3.618.49-5.492.49-8.335 0-15.9-3.318-21.46-8.707a12.273 12.273 0 0 1-3.692.803c5.662 6.428 13.937 10.484 23.152 10.484 8.753 0 16.658-3.659 22.281-9.534 5.623 5.875 13.528 9.534 22.281 9.534 9.215 0 17.49-4.056 23.153-10.484a12.273 12.273 0 0 1-3.693-.803c-5.56 5.39-13.125 8.707-21.46 8.707-1.874 0-3.71-.168-5.492-.49.837.07 1.685.108 2.54.108 13.21 0 24.492-8.335 28.908-20.045a36.074 36.074 0 0 0-13.958-2.792c-8.85 0-16.962 3.182-23.266 8.465 6.6-6.91 15.881-11.22 26.161-11.236a12.475 12.475 0 0 1 2.57-3.401 36.765 36.765 0 0 0-1.656-.04c-10.335 0-19.664 4.34-26.28 11.3a30.924 30.924 0 0 0 6.046-18.418 30.927 30.927 0 0 0-3.996-15.252 12.425 12.425 0 0 1-2.869 4.962 30.956 30.956 0 0 1 2.96 13.252 30.925 30.925 0 0 1-6.45 18.953 30.924 30.924 0 0 0 5.213-17.233c0-9.374-4.154-17.78-10.712-23.467 0 0 6.558 5.687 0 0zm0 51.724c-5.548 5.315-13.06 8.579-21.33 8.579H44.845a55.253 55.253 0 0 0 2.229 3.057h23.245c7.58 0 14.523-2.744 19.9-7.294 5.378 4.55 12.321 7.294 19.9 7.294h23.246a55.243 55.243 0 0 0 2.228-3.057h-24.045c-8.27 0-15.782-3.264-21.329-8.58 0 0 5.547 5.316 0 0zm-40.48 14.79c.473.518.957 1.028 1.449 1.529h78.06a55.7 55.7 0 0 0 1.45-1.53zm4.817 4.682c.965.83 1.958 1.627 2.979 2.389h65.366a55.157 55.157 0 0 0 2.979-2.39H90.219zm6.451 4.777a54.703 54.703 0 0 0 5.502 3.058h47.418a54.702 54.702 0 0 0 5.502-3.058H90.22zm8.983 4.587a54.48 54.48 0 0 0 20.228 3.87 54.48 54.48 0 0 0 20.228-3.87H90.219z" opacity="1" data-original="#ffffff"></path></g></g></svg>
