<svg xmlns="http://www.w3.org/2000/svg" version="1.1" xmlns:xlink="http://www.w3.org/1999/xlink" width="512" height="512" x="0" y="0" viewBox="0 0 512 512" style="enable-background:new 0 0 512 512" xml:space="preserve" class=""><g><path d="M0 0h512v512H0z" style="" fill="#ffda44" data-original="#ffda44"></path><path d="M0 .002h512v170.663H0zM0 341.337h512V512H0z" style="" fill="#6da544" data-original="#6da544" class=""></path><path d="M256 256.008 0 512V0z" style="" fill="#d80027" data-original="#d80027"></path><path d="m335.336 217.068 9.663 29.74h31.272l-25.299 18.383 9.663 29.741-25.299-18.382-25.3 18.382 9.663-29.741-25.299-18.383h31.272zM432.664 217.068l9.664 29.74H473.6l-25.298 18.383 9.662 29.741-25.3-18.382-25.298 18.382 9.662-29.741-25.299-18.383h31.272z" fill="#000000" opacity="1" data-original="#000000"></path></g></svg>
